<svg width="356" height="420" xmlns="http://www.w3.org/2000/svg" xmlns:xlink="http://www.w3.org/1999/xlink"><defs><path d="M0 9c0-5 4-9 9-9h168c6 0 10 4 10 9v241c0 5-4 9-10 9H9c-5 0-9-4-9-9V9z" id="a"/><filter x="-17%" y="-7%" width="134.8%" height="127%" filterUnits="objectBoundingBox" id="b"><feMorphology radius="7.5" in="SourceAlpha" result="shadowSpreadOuter1"/><feOffset dy="20" in="shadowSpreadOuter1" result="shadowOffsetOuter1"/><feGaussianBlur stdDeviation="15" in="shadowOffsetOuter1" result="shadowBlurOuter1"/><feColorMatrix values="0 0 0 0 0 0 0 0 0 0 0 0 0 0 0 0 0 0 0.153504303 0" in="shadowBlurOuter1"/></filter><filter x="-9%" y="-1%" width="118.2%" height="115.1%" filterUnits="objectBoundingBox" id="c"><feGaussianBlur stdDeviation="2" in="SourceAlpha" result="shadowBlurInner1"/><feOffset in="shadowBlurInner1" result="shadowOffsetInner1"/><feComposite in="shadowOffsetInner1" in2="SourceAlpha" operator="arithmetic" k2="-1" k3="1" result="shadowInnerInner1"/><feColorMatrix values="0 0 0 0 0 0 0 0 0 0 0 0 0 0 0 0 0 0 0.05 0" in="shadowInnerInner1"/></filter></defs><g fill="none" fill-rule="evenodd"><path d="M0 0h356v420H0z"/><g transform="translate(85 48)"><mask id="d" fill="#fff"><use xlink:href="#a"/></mask><g fill-rule="nonzero"><use fill="#000" filter="url(#b)" xlink:href="#a"/><use fill="#FAFAFA" fill-rule="evenodd" xlink:href="#a"/><use fill="#000" filter="url(#c)" xlink:href="#a"/></g><path d="M94 254c2 0 4-2 4-4 0-3-2-4-4-4-3 0-4 1-4 4 0 2 1 4 4 4zm0 0c-3 0-5-2-5-4 0-3 2-5 5-5 2 0 4 2 4 5 0 2-2 4-4 4z" fill="#DFDFDF" fill-rule="nonzero" mask="url(#d)"/><ellipse fill="#DFDFDF" mask="url(#d)" cx="93.389" cy="10.39" rx="1.389" ry="1.39"/></g><rect width="167.291" height="223.387" rx=".164" transform="translate(94 66)" fill="#FFF"/></g></svg>