<svg width="356" height="420" xmlns="http://www.w3.org/2000/svg" xmlns:xlink="http://www.w3.org/1999/xlink"><defs><path d="M129 90v146c0 15-7 23-23 23H24c-16 0-23-8-23-23V96l-1-1V78v-1h1v-5H0v-1-17l1-1v-8l-1-1v-8l1-1V23C1 8 8 0 24 0h82c16 0 23 8 23 23v37h1v29l-1 1z" id="b"/><filter x="-25%" y="-7%" width="150%" height="127%" filterUnits="objectBoundingBox" id="a"><feMorphology radius="7.5" in="SourceAlpha" result="shadowSpreadOuter1"/><feOffset dy="20" in="shadowSpreadOuter1" result="shadowOffsetOuter1"/><feGaussianBlur stdDeviation="15" in="shadowOffsetOuter1" result="shadowBlurOuter1"/><feColorMatrix values="0 0 0 0 0 0 0 0 0 0 0 0 0 0 0 0 0 0 0.153504303 0" in="shadowBlurOuter1"/></filter><filter x="-13%" y="-1%" width="126.2%" height="115.1%" filterUnits="objectBoundingBox" id="c"><feGaussianBlur stdDeviation="2" in="SourceAlpha" result="shadowBlurInner1"/><feOffset in="shadowBlurInner1" result="shadowOffsetInner1"/><feComposite in="shadowOffsetInner1" in2="SourceAlpha" operator="arithmetic" k2="-1" k3="1" result="shadowInnerInner1"/><feColorMatrix values="0 0 0 0 0 0 0 0 0 0 0 0 0 0 0 0 0 0 0.05 0" in="shadowInnerInner1"/></filter><rect id="d" x="57" y="9" width="15.66" height="2.429" rx="1.214"/><path d="M88 3c0 2-2 6-7 6H32c-5 0-7-4-7-6s0-3-2-3H13C5 0 0 5 0 13v218c0 8 5 13 13 13h87c8 0 13-5 13-13V13c0-8-5-13-13-13H90c-2 0-2 1-2 3z" id="e"/></defs><g fill="none" fill-rule="evenodd"><path d="M0 0h356v420H0z"/><g transform="translate(113 48)"><use fill="#000" filter="url(#a)" xlink:href="#b"/><use fill="#FAFAFA" xlink:href="#b"/><use fill="#000" filter="url(#c)" xlink:href="#b"/><use fill="#DFDFDF" xlink:href="#d"/></g><use fill="#FFF" xlink:href="#e" transform="translate(121.533 55.697)"/></g></svg>