<svg class="icon" viewBox="0 0 1024 1024" xmlns="http://www.w3.org/2000/svg" width="200" height="200"><path d="M512 44.288c258.304 0 467.712 209.408 467.712 467.712S770.304 979.712 512 979.712 44.288 770.304 44.288 512 253.696 44.288 512 44.288zm0 76.587a391.125 391.125 0 1 0 0 782.25 391.125 391.125 0 0 0 0-782.25zM405.333 362.667h213.334a42.667 42.667 0 0 1 42.666 42.666v213.334a42.667 42.667 0 0 1-42.666 42.666H405.333a42.667 42.667 0 0 1-42.666-42.666V405.333a42.667 42.667 0 0 1 42.666-42.666z" fill="#F54A45"/></svg>