<?xml version="1.0" standalone="no"?><!DOCTYPE svg PUBLIC "-//W3C//DTD SVG 1.1//EN" "http://www.w3.org/Graphics/SVG/1.1/DTD/svg11.dtd"><svg t="1561172029763" class="icon" viewBox="0 0 1024 1024" version="1.1" xmlns="http://www.w3.org/2000/svg" p-id="9036" xmlns:xlink="http://www.w3.org/1999/xlink" width="200" height="200"><defs><style type="text/css"></style></defs><path d="M416.680851 110.897021v54.468085H964.085106c15.01794 0 27.234043-12.216102 27.234043-27.234042s-12.216102-27.234043-27.234043-27.234043H416.680851z" fill="#FFCC75" p-id="9037"></path><path d="M220.595745 110.897021h163.404255v54.468085h-163.404255z" fill="#98D9D5" p-id="9038"></path><path d="M81.702128 187.15234c15.726026 0 58.55537-6.760579 106.212766-18.240272V107.35006C140.257498 95.870366 97.428153 89.109787 81.702128 89.109787 54.672885 89.109787 32.680851 111.101821 32.680851 138.131064s21.992034 49.021277 49.021277 49.021276z" fill="#274B6D" p-id="9039"></path><path d="M81.702128 219.833191c22.196834 0 74.340221-9.13103 124.588119-21.787234H964.085106c33.035983 0 59.914894-26.878911 59.914894-59.914893s-26.878911-59.914894-59.914894-59.914894H206.290247c-50.247898-12.656204-102.389106-21.787234-124.588119-21.787234C36.650485 56.428936 0 93.0816 0 138.131064s36.650485 81.702128 81.702128 81.702127z m0-130.723404c15.726026 0 58.55537 6.760579 106.212766 18.240273v61.562008C140.257498 180.391762 97.428153 187.15234 81.702128 187.15234 54.672885 187.15234 32.680851 165.162485 32.680851 138.131064s21.992034-49.021277 49.021277-49.021277zM991.319149 138.131064c0 15.01794-12.216102 27.234043-27.234043 27.234042H416.680851v-54.468085H964.085106c15.01794 0 27.234043 12.218281 27.234043 27.234043zM384 110.897021v54.468085h-163.404255v-54.468085h163.404255z" fill="#082947" p-id="9040"></path><path d="M942.297872 285.194894h-860.595744c-27.029243 0-49.021277 21.992034-49.021277 49.021276v551.652766c0 27.029243 21.992034 49.021277 49.021277 49.021277h860.595744c27.029243 0 49.021277-21.992034 49.021277-49.021277V334.21617c0-27.029243-21.992034-49.021277-49.021277-49.021276zM203.38383 902.209362c-76.043983 0-137.913191-61.86703-137.913192-137.913192s61.86703-137.913191 137.913192-137.913191a137.956766 137.956766 0 0 1 67.721259 17.78274 16.340426 16.340426 0 0 1 6.191932 22.264375c-0.178655 0.318094-0.381277 0.610043-0.577361 0.910706a122.313532 122.313532 0 0 1 23.61954 23.61954c0.300664-0.196085 0.594791-0.398706 0.910706-0.577361a16.340426 16.340426 0 0 1 22.264375 6.191932 137.939336 137.939336 0 0 1 17.784919 67.721259c-0.002179 76.043983-61.869209 137.913191-137.91537 137.913192z m0-308.507234c-76.043983 0-137.913191-61.86703-137.913192-137.913192s61.86703-137.913191 137.913192-137.913191c76.046162 0 137.91537 61.86703 137.91537 137.913191s-61.869209 137.913191-137.91537 137.913192zM512 902.209362c-76.043983 0-137.913191-61.86703-137.913191-137.913192s61.86703-137.913191 137.913191-137.913191 137.913191 61.86703 137.913191 137.913191-61.869209 137.913191-137.913191 137.913192z m0-308.507234c-76.043983 0-137.913191-61.86703-137.913191-137.913192s61.86703-137.913191 137.913191-137.913191 137.913191 61.86703 137.913191 137.913191-61.869209 137.913191-137.913191 137.913192z m308.61617 308.507234c-76.046162 0-137.91537-61.86703-137.91537-137.913192s61.86703-137.913191 137.91537-137.913191c76.043983 0 137.913191 61.86703 137.913192 137.913191s-61.86703 137.913191-137.913192 137.913192z m0-308.507234c-76.046162 0-137.91537-61.86703-137.91537-137.913192s61.86703-137.913191 137.91537-137.913191c76.043983 0 137.913191 61.86703 137.913192 137.913191s-61.86703 137.913191-137.913192 137.913192z" fill="#F2EBD9" p-id="9041"></path><path d="M203.38383 350.556596c-58.02594 0-105.23234 47.2064-105.232341 105.23234s47.2064 105.23234 105.232341 105.232341 105.234519-47.2064 105.234519-105.232341-47.210757-105.23234-105.234519-105.23234z" fill="#F2484B" p-id="9042"></path><path d="M512 350.556596c-58.02594 0-105.23234 47.2064-105.23234 105.23234s47.2064 105.23234 105.23234 105.232341 105.23234-47.2064 105.23234-105.232341-47.2064-105.23234-105.23234-105.23234z" fill="#FF6E1D" p-id="9043"></path><path d="M820.61617 350.556596c-58.02594 0-105.234519 47.2064-105.234519 105.23234s47.208579 105.23234 105.234519 105.232341 105.23234-47.2064 105.232341-105.232341-47.2064-105.23234-105.232341-105.23234z" fill="#FFCC75" p-id="9044"></path><path d="M276.717481 667.342979c-4.67554 7.144034-14.142094 9.538451-21.684834 5.279047A105.219268 105.219268 0 0 0 203.38383 659.06383c-58.02594 0-105.23234 47.2064-105.232341 105.23234s47.2064 105.23234 105.232341 105.232341 105.234519-47.2064 105.234519-105.232341a105.197481 105.197481 0 0 0-13.560375-51.648817c-4.259404-7.540562-1.864987-17.009294 5.279047-21.684834a122.254706 122.254706 0 0 0-23.61954-23.61954z" fill="#185F8D" p-id="9045"></path><path d="M512 659.06383c-58.02594 0-105.23234 47.2064-105.23234 105.23234s47.2064 105.23234 105.23234 105.232341 105.23234-47.2064 105.23234-105.232341-47.2064-105.23234-105.23234-105.23234z" fill="#6DA8D6" p-id="9046"></path><path d="M820.61617 659.06383c-58.02594 0-105.234519 47.2064-105.234519 105.23234s47.208579 105.23234 105.234519 105.232341 105.23234-47.2064 105.232341-105.232341-47.2064-105.23234-105.232341-105.23234z" fill="#98D9D5" p-id="9047"></path><path d="M942.297872 252.514043h-860.595744C36.650485 252.514043 0 289.166706 0 334.21617v551.652766c0 45.051643 36.650485 81.702128 81.702128 81.702128h860.595744c45.051643 0 81.702128-36.650485 81.702128-81.702128V334.21617c0-45.049464-36.650485-81.702128-81.702128-81.702127zM991.319149 885.868936c0 27.029243-21.992034 49.021277-49.021277 49.021277h-860.595744c-27.029243 0-49.021277-21.992034-49.021277-49.021277V334.21617c0-27.029243 21.992034-49.021277 49.021277-49.021276h860.595744c27.029243 0 49.021277 21.992034 49.021277 49.021276v551.652766z" fill="#082947" p-id="9048"></path><path d="M203.38383 317.875745c-76.043983 0-137.913191 61.86703-137.913192 137.913191s61.86703 137.913191 137.913192 137.913192c76.046162 0 137.91537-61.86703 137.91537-137.913192s-61.869209-137.913191-137.91537-137.913191z m0 243.145532c-58.02594 0-105.23234-47.2064-105.232341-105.232341s47.2064-105.23234 105.232341-105.23234 105.234519 47.2064 105.234519 105.23234-47.210757 105.23234-105.234519 105.232341zM512 317.875745c-76.043983 0-137.913191 61.86703-137.913191 137.913191s61.86703 137.913191 137.913191 137.913192 137.913191-61.86703 137.913191-137.913192-61.869209-137.913191-137.913191-137.913191z m0 243.145532c-58.02594 0-105.23234-47.2064-105.23234-105.232341s47.2064-105.23234 105.23234-105.23234 105.23234 47.2064 105.23234 105.23234-47.2064 105.23234-105.23234 105.232341zM820.61617 317.875745c-76.046162 0-137.91537 61.86703-137.91537 137.913191s61.86703 137.913191 137.91537 137.913192c76.043983 0 137.913191-61.86703 137.913192-137.913192s-61.86703-137.913191-137.913192-137.913191z m0 243.145532c-58.02594 0-105.234519-47.2064-105.234519-105.232341s47.208579-105.23234 105.234519-105.23234 105.23234 47.2064 105.232341 105.23234-47.2064 105.23234-105.232341 105.232341zM512 626.382979c-76.043983 0-137.913191 61.86703-137.913191 137.913191s61.86703 137.913191 137.913191 137.913192 137.913191-61.86703 137.913191-137.913192-61.869209-137.913191-137.913191-137.913191z m0 243.145532c-58.02594 0-105.23234-47.2064-105.23234-105.232341s47.2064-105.23234 105.23234-105.23234 105.23234 47.2064 105.23234 105.23234-47.2064 105.23234-105.23234 105.232341zM820.61617 626.382979c-76.046162 0-137.91537 61.86703-137.91537 137.913191s61.86703 137.913191 137.91537 137.913192c76.043983 0 137.913191-61.86703 137.913192-137.913192s-61.86703-137.913191-137.913192-137.913191z m0 243.145532c-58.02594 0-105.234519-47.2064-105.234519-105.232341s47.208579-105.23234 105.234519-105.23234 105.23234 47.2064 105.232341 105.23234-47.2064 105.23234-105.232341 105.232341zM301.249906 690.382979c-0.315915 0.178655-0.610043 0.381277-0.910706 0.577361-7.146213 4.677719-9.54063 14.146451-5.281226 21.687013a105.221447 105.221447 0 0 1 13.560375 51.648817c0 58.02594-47.208579 105.23234-105.234519 105.232341s-105.23234-47.2064-105.232341-105.232341 47.2064-105.23234 105.232341-105.23234a105.195302 105.195302 0 0 1 51.648817 13.558196c7.544919 4.261583 17.009294 1.864987 21.684834-5.279047 0.198264-0.302843 0.398706-0.594791 0.577362-0.912885a16.340426 16.340426 0 0 0-6.191932-22.264375 137.956766 137.956766 0 0 0-67.72126-17.78274c-76.043983 0-137.913191 61.86703-137.913191 137.913191s61.86703 137.913191 137.913191 137.913192c76.046162 0 137.91537-61.86703 137.91537-137.913192a137.939336 137.939336 0 0 0-17.784919-67.721259 16.340426 16.340426 0 0 0-22.262196-6.191932z" fill="#082947" p-id="9049"></path></svg>